<svg xmlns="http://www.w3.org/2000/svg" viewBox="0 0 1000 1000" preserveAspectRatio="none">
  <path fill="white" d="
    M 52,43
    C 61,32 70,21 84,29
    C 95,17 106,35 118,23
    C 130,10 141,30 154,18
    C 166,6  178,27 191,14
    C 203,2  216,24 229,11
    C 241,-1 254,22 267,9
    C 279,-3 292,20 305,8
    C 317,-4 330,19 344,7
    C 357,-5 368,18 382,7
    C 396,-4 406,17 420,7
    C 434,-3 443,16 458,6
    C 472,-4 481,15 496,5
    C 510,-5 519,14 534,4
    C 548,-6 557,13 572,3
    C 586,-7 595,12 610,3
    C 624,-6 633,13 648,4
    C 662,-5 671,14 686,5
    C 700,-4 709,15 724,6
    C 738,-3 747,16 762,7
    C 776,-2 785,17 800,8
    C 814,-1 822,18 837,10
    C 851,2  859,19 874,13
    C 888,7  894,23 908,18
    C 921,13 926,28 937,25
    C 948,22 954,36 961,34
    C 968,32 975,44 980,42
    C 985,40 992,52 995,56

    C 1000,67 986,73  993,87
    C 1000,101 985,107 991,121
    C 998,135 983,141 989,155
    C 996,169 981,175 987,189
    C 994,203 979,209 985,223
    C 992,237 977,243 983,257
    C 990,271 975,277 981,291
    C 988,305 973,311 979,325
    C 986,339 971,345 977,359
    C 984,373 969,379 975,393
    C 982,407 967,413 973,427
    C 980,441 965,447 971,461
    C 978,475 963,481 969,495
    C 976,509 961,515 967,529
    C 974,543 959,549 965,563
    C 972,577 957,583 963,597
    C 970,611 955,617 961,631
    C 968,645 953,651 959,665
    C 966,679 951,685 957,699
    C 964,713 949,719 955,733
    C 962,747 947,753 953,767
    C 960,781 945,787 951,801
    C 958,815 943,821 949,835
    C 956,849 941,855 947,869
    C 954,883 939,887 945,901
    C 951,915 939,922 941,934
    C 943,946 936,955 935,965
    C 934,975 940,988 941,997

    C 928,993 919,980 905,988
    C 891,996 883,982 869,990
    C 855,998 847,984 833,992
    C 819,1000 811,986 797,994
    C 783,1002 775,988 761,996
    C 747,1004 739,990 725,998
    C 711,1006 703,992 689,1000
    C 675,1008 667,994 653,1002
    C 639,1010 631,996 617,1004
    C 603,1012 595,998 581,1006
    C 567,1014 559,1000 545,1008
    C 531,1016 523,1002 509,1010
    C 495,1018 487,1004 473,1012
    C 459,1020 451,1006 437,1014
    C 423,1022 415,1008 401,1016
    C 387,1024 379,1010 365,1018
    C 351,1026 343,1012 329,1020
    C 315,1028 307,1014 293,1022
    C 279,1030 271,1016 257,1024
    C 243,1032 235,1018 221,1026
    C 207,1034 199,1020 185,1028
    C 171,1036 163,1022 149,1029
    C 135,1036 128,1024 115,1029
    C 102,1034 95,1024 84,1026
    C 73,1028 65,1019 57,1020
    C 49,1021 43,1013 40,1009
    C 37,1005 35,997  33,991

    C 27,977  42,970  34,955
    C 26,940  41,933  33,918
    C 25,903  40,896  32,881
    C 24,866  39,859  31,844
    C 23,829  38,822  30,807
    C 22,792  37,785  29,770
    C 21,755  36,748  28,733
    C 20,718  35,711  27,696
    C 19,681  34,674  26,659
    C 18,644  33,637  25,622
    C 17,607  32,600  24,585
    C 16,570  31,563  23,548
    C 15,533  30,526  22,511
    C 14,496  29,489  21,474
    C 13,459  28,452  20,437
    C 12,422  27,415  19,400
    C 11,385  26,378  18,363
    C 10,348  25,341  17,326
    C 9,311   24,304  16,289
    C 8,274   23,267  15,252
    C 7,237   22,230  14,215
    C 6,200   21,193  13,178
    C 5,163   20,156  12,141
    C 4,126   19,119  11,104
    C 3,89    18,82   10,67
    C 2,52    16,45   8,38
    C 20,30   36,36   52,43
    Z
  "/>
</svg>
